<?xml version="1.0" encoding="UTF-8"?>
<!DOCTYPE svg PUBLIC "-//W3C//DTD SVG 1.1//EN"
    "http://www.w3.org/Graphics/SVG/1.1/DTD/svg11.dtd"><svg stroke="rgb(0,0,0)" xmlns="http://www.w3.org/2000/svg" font-size="1" width="100.0000" stroke-opacity="1" xmlns:xlink="http://www.w3.org/1999/xlink" viewBox="0.0 0.0 100.0 100.0" height="100.0000" version="1.1"><defs></defs><g fill="rgb(0,0,0)" stroke="rgb(0,0,0)" stroke-linecap="butt" stroke-width="0.5" stroke-miterlimit="10.0" fill-opacity="0.0" stroke-opacity="1.0" stroke-linejoin="miter"><path d="M 55.6818,15.9091 l 11.3636,34.0909 "/></g><g fill="rgb(0,0,0)" stroke="rgb(0,0,0)" stroke-linecap="butt" stroke-width="0.5" stroke-miterlimit="10.0" fill-opacity="0.0" stroke-opacity="1.0" stroke-linejoin="miter"><path d="M 55.6818,15.9091 l -11.3636,34.0909 "/></g><g fill="rgb(255,255,255)" stroke="rgb(0,0,0)" stroke-linecap="butt" stroke-width="0.5" stroke-miterlimit="10.0" fill-opacity="1.0" stroke-opacity="1.0" stroke-linejoin="miter"><path d="M 78.4091,50.0000 c 0.0000,-6.2760 -5.0877,-11.3636 -11.3636 -11.3636c -6.2760,-0.0000 -11.3636,5.0877 -11.3636 11.3636c -0.0000,6.2760 5.0877,11.3636 11.3636 11.3636c 6.2760,0.0000 11.3636,-5.0877 11.3636 -11.3636Z"/></g><g fill="rgb(0,0,0)" stroke="rgb(0,0,0)" stroke-linecap="butt" stroke-width="0.5" font-size="11.363636363636363px" stroke-miterlimit="10.0" fill-opacity="1.0" stroke-opacity="1.0" stroke-linejoin="miter"><text dominant-baseline="middle" stroke="none" transform="matrix(1.0000,0.0000,0.0000,1.0000,67.0455,50.0000)" text-anchor="middle">F</text></g><g fill="rgb(0,0,0)" stroke="rgb(0,0,0)" stroke-linecap="butt" stroke-width="0.5" stroke-miterlimit="10.0" fill-opacity="0.0" stroke-opacity="1.0" stroke-linejoin="miter"><path d="M 44.3182,50.0000 l 11.3636,34.0909 "/></g><g fill="rgb(0,0,0)" stroke="rgb(0,0,0)" stroke-linecap="butt" stroke-width="0.5" stroke-miterlimit="10.0" fill-opacity="0.0" stroke-opacity="1.0" stroke-linejoin="miter"><path d="M 44.3182,50.0000 l -11.3636,34.0909 "/></g><g fill="rgb(255,255,255)" stroke="rgb(0,0,0)" stroke-linecap="butt" stroke-width="0.5" stroke-miterlimit="10.0" fill-opacity="1.0" stroke-opacity="1.0" stroke-linejoin="miter"><path d="M 67.0455,84.0909 c 0.0000,-6.2760 -5.0877,-11.3636 -11.3636 -11.3636c -6.2760,-0.0000 -11.3636,5.0877 -11.3636 11.3636c -0.0000,6.2760 5.0877,11.3636 11.3636 11.3636c 6.2760,0.0000 11.3636,-5.0877 11.3636 -11.3636Z"/></g><g fill="rgb(0,0,0)" stroke="rgb(0,0,0)" stroke-linecap="butt" stroke-width="0.5" font-size="11.363636363636363px" stroke-miterlimit="10.0" fill-opacity="1.0" stroke-opacity="1.0" stroke-linejoin="miter"><text dominant-baseline="middle" stroke="none" transform="matrix(1.0000,0.0000,0.0000,1.0000,55.6818,84.0909)" text-anchor="middle">T</text></g><g fill="rgb(255,255,255)" stroke="rgb(0,0,0)" stroke-linecap="butt" stroke-width="0.5" stroke-miterlimit="10.0" fill-opacity="1.0" stroke-opacity="1.0" stroke-linejoin="miter"><path d="M 44.3182,84.0909 c 0.0000,-6.2760 -5.0877,-11.3636 -11.3636 -11.3636c -6.2760,-0.0000 -11.3636,5.0877 -11.3636 11.3636c -0.0000,6.2760 5.0877,11.3636 11.3636 11.3636c 6.2760,0.0000 11.3636,-5.0877 11.3636 -11.3636Z"/></g><g fill="rgb(0,0,0)" stroke="rgb(0,0,0)" stroke-linecap="butt" stroke-width="0.5" font-size="11.363636363636363px" stroke-miterlimit="10.0" fill-opacity="1.0" stroke-opacity="1.0" stroke-linejoin="miter"><text dominant-baseline="middle" stroke="none" transform="matrix(1.0000,0.0000,0.0000,1.0000,32.9545,84.0909)" text-anchor="middle">F</text></g><g fill="rgb(255,255,255)" stroke="rgb(0,0,0)" stroke-linecap="butt" stroke-width="0.5" stroke-miterlimit="10.0" fill-opacity="1.0" stroke-opacity="1.0" stroke-linejoin="miter"><path d="M 55.6818,50.0000 c 0.0000,-6.2760 -5.0877,-11.3636 -11.3636 -11.3636c -6.2760,-0.0000 -11.3636,5.0877 -11.3636 11.3636c -0.0000,6.2760 5.0877,11.3636 11.3636 11.3636c 6.2760,0.0000 11.3636,-5.0877 11.3636 -11.3636Z"/></g><g fill="rgb(0,0,0)" stroke="rgb(0,0,0)" stroke-linecap="butt" stroke-width="0.5" font-size="11.363636363636363px" stroke-miterlimit="10.0" fill-opacity="1.0" stroke-opacity="1.0" stroke-linejoin="miter"><text dominant-baseline="middle" stroke="none" transform="matrix(1.0000,0.0000,0.0000,1.0000,44.3182,50.0000)" text-anchor="middle">x3</text></g><g fill="rgb(255,255,255)" stroke="rgb(0,0,0)" stroke-linecap="butt" stroke-width="0.5" stroke-miterlimit="10.0" fill-opacity="1.0" stroke-opacity="1.0" stroke-linejoin="miter"><path d="M 67.0455,15.9091 c 0.0000,-6.2760 -5.0877,-11.3636 -11.3636 -11.3636c -6.2760,-0.0000 -11.3636,5.0877 -11.3636 11.3636c -0.0000,6.2760 5.0877,11.3636 11.3636 11.3636c 6.2760,0.0000 11.3636,-5.0877 11.3636 -11.3636Z"/></g><g fill="rgb(0,0,0)" stroke="rgb(0,0,0)" stroke-linecap="butt" stroke-width="0.5" font-size="11.363636363636363px" stroke-miterlimit="10.0" fill-opacity="1.0" stroke-opacity="1.0" stroke-linejoin="miter"><text dominant-baseline="middle" stroke="none" transform="matrix(1.0000,0.0000,0.0000,1.0000,55.6818,15.9091)" text-anchor="middle">x1</text></g></svg>