<?xml version="1.0" encoding="UTF-8"?>
<!DOCTYPE svg PUBLIC "-//W3C//DTD SVG 1.1//EN"
    "http://www.w3.org/Graphics/SVG/1.1/DTD/svg11.dtd"><svg stroke="rgb(0,0,0)" xmlns="http://www.w3.org/2000/svg" font-size="1" width="100.0000" stroke-opacity="1" xmlns:xlink="http://www.w3.org/1999/xlink" viewBox="0.0 0.0 100.0 100.0" height="100.0000" version="1.1"><defs></defs><g fill="rgb(0,0,0)" stroke="rgb(0,0,0)" stroke-linecap="butt" stroke-width="0.5" stroke-miterlimit="10.0" fill-opacity="0.0" stroke-opacity="1.0" stroke-linejoin="miter"><path d="M 53.0992,25.2066 l 25.8264,12.3967 "/></g><g fill="rgb(0,0,0)" stroke="rgb(0,0,0)" stroke-linecap="butt" stroke-width="0.5" stroke-miterlimit="10.0" fill-opacity="0.0" stroke-opacity="1.0" stroke-linejoin="miter"><path d="M 53.0992,25.2066 l -25.8264,12.3967 "/></g><g fill="rgb(0,0,0)" stroke="rgb(0,0,0)" stroke-linecap="butt" stroke-width="0.5" stroke-miterlimit="10.0" fill-opacity="0.0" stroke-opacity="1.0" stroke-linejoin="miter"><path d="M 78.9256,37.6033 l 8.2645,12.3967 "/></g><g fill="rgb(0,0,0)" stroke="rgb(0,0,0)" stroke-linecap="butt" stroke-width="0.5" stroke-miterlimit="10.0" fill-opacity="0.0" stroke-opacity="1.0" stroke-linejoin="miter"><path d="M 78.9256,37.6033 l -8.2645,12.3967 "/></g><g fill="rgb(0,0,0)" stroke="rgb(0,0,0)" stroke-linecap="butt" stroke-width="0.5" stroke-miterlimit="10.0" fill-opacity="0.0" stroke-opacity="1.0" stroke-linejoin="miter"><path d="M 87.1901,50.0000 l 4.1322,12.3967 "/></g><g fill="rgb(0,0,0)" stroke="rgb(0,0,0)" stroke-linecap="butt" stroke-width="0.5" stroke-miterlimit="10.0" fill-opacity="0.0" stroke-opacity="1.0" stroke-linejoin="miter"><path d="M 87.1901,50.0000 l -4.1322,12.3967 "/></g><g fill="rgb(255,255,255)" stroke="rgb(0,0,0)" stroke-linecap="butt" stroke-width="0.5" stroke-miterlimit="10.0" fill-opacity="1.0" stroke-opacity="1.0" stroke-linejoin="miter"><path d="M 95.4545,62.3967 c 0.0000,-2.2822 -1.8501,-4.1322 -4.1322 -4.1322c -2.2822,-0.0000 -4.1322,1.8501 -4.1322 4.1322c -0.0000,2.2822 1.8501,4.1322 4.1322 4.1322c 2.2822,0.0000 4.1322,-1.8501 4.1322 -4.1322Z"/></g><g fill="rgb(0,0,0)" stroke="rgb(0,0,0)" stroke-linecap="butt" stroke-width="0.5" font-size="4.132231404958678px" stroke-miterlimit="10.0" fill-opacity="1.0" stroke-opacity="1.0" stroke-linejoin="miter"><text dominant-baseline="middle" stroke="none" transform="matrix(1.0000,0.0000,0.0000,1.0000,91.3223,62.3967)" text-anchor="middle">T</text></g><g fill="rgb(255,255,255)" stroke="rgb(0,0,0)" stroke-linecap="butt" stroke-width="0.5" stroke-miterlimit="10.0" fill-opacity="1.0" stroke-opacity="1.0" stroke-linejoin="miter"><path d="M 87.1901,62.3967 c 0.0000,-2.2822 -1.8501,-4.1322 -4.1322 -4.1322c -2.2822,-0.0000 -4.1322,1.8501 -4.1322 4.1322c -0.0000,2.2822 1.8501,4.1322 4.1322 4.1322c 2.2822,0.0000 4.1322,-1.8501 4.1322 -4.1322Z"/></g><g fill="rgb(0,0,0)" stroke="rgb(0,0,0)" stroke-linecap="butt" stroke-width="0.5" font-size="4.132231404958678px" stroke-miterlimit="10.0" fill-opacity="1.0" stroke-opacity="1.0" stroke-linejoin="miter"><text dominant-baseline="middle" stroke="none" transform="matrix(1.0000,0.0000,0.0000,1.0000,83.0579,62.3967)" text-anchor="middle">F</text></g><g fill="rgb(255,255,255)" stroke="rgb(0,0,0)" stroke-linecap="butt" stroke-width="0.5" stroke-miterlimit="10.0" fill-opacity="1.0" stroke-opacity="1.0" stroke-linejoin="miter"><path d="M 91.3223,50.0000 c 0.0000,-2.2822 -1.8501,-4.1322 -4.1322 -4.1322c -2.2822,-0.0000 -4.1322,1.8501 -4.1322 4.1322c -0.0000,2.2822 1.8501,4.1322 4.1322 4.1322c 2.2822,0.0000 4.1322,-1.8501 4.1322 -4.1322Z"/></g><g fill="rgb(0,0,0)" stroke="rgb(0,0,0)" stroke-linecap="butt" stroke-width="0.5" font-size="4.132231404958678px" stroke-miterlimit="10.0" fill-opacity="1.0" stroke-opacity="1.0" stroke-linejoin="miter"><text dominant-baseline="middle" stroke="none" transform="matrix(1.0000,0.0000,0.0000,1.0000,87.1901,50.0000)" text-anchor="middle">y&#39;</text></g><g fill="rgb(0,0,0)" stroke="rgb(0,0,0)" stroke-linecap="butt" stroke-width="0.5" stroke-miterlimit="10.0" fill-opacity="0.0" stroke-opacity="1.0" stroke-linejoin="miter"><path d="M 70.6612,50.0000 l 4.1322,12.3967 "/></g><g fill="rgb(0,0,0)" stroke="rgb(0,0,0)" stroke-linecap="butt" stroke-width="0.5" stroke-miterlimit="10.0" fill-opacity="0.0" stroke-opacity="1.0" stroke-linejoin="miter"><path d="M 70.6612,50.0000 l -4.1322,12.3967 "/></g><g fill="rgb(255,255,255)" stroke="rgb(0,0,0)" stroke-linecap="butt" stroke-width="0.5" stroke-miterlimit="10.0" fill-opacity="1.0" stroke-opacity="1.0" stroke-linejoin="miter"><path d="M 78.9256,62.3967 c 0.0000,-2.2822 -1.8501,-4.1322 -4.1322 -4.1322c -2.2822,-0.0000 -4.1322,1.8501 -4.1322 4.1322c -0.0000,2.2822 1.8501,4.1322 4.1322 4.1322c 2.2822,0.0000 4.1322,-1.8501 4.1322 -4.1322Z"/></g><g fill="rgb(0,0,0)" stroke="rgb(0,0,0)" stroke-linecap="butt" stroke-width="0.5" font-size="4.132231404958678px" stroke-miterlimit="10.0" fill-opacity="1.0" stroke-opacity="1.0" stroke-linejoin="miter"><text dominant-baseline="middle" stroke="none" transform="matrix(1.0000,0.0000,0.0000,1.0000,74.7934,62.3967)" text-anchor="middle">F</text></g><g fill="rgb(0,0,0)" stroke="rgb(0,0,0)" stroke-linecap="butt" stroke-width="0.5" stroke-miterlimit="10.0" fill-opacity="0.0" stroke-opacity="1.0" stroke-linejoin="miter"><path d="M 66.5289,62.3967 l 4.1322,12.3967 "/></g><g fill="rgb(0,0,0)" stroke="rgb(0,0,0)" stroke-linecap="butt" stroke-width="0.5" stroke-miterlimit="10.0" fill-opacity="0.0" stroke-opacity="1.0" stroke-linejoin="miter"><path d="M 66.5289,62.3967 l -4.1322,12.3967 "/></g><g fill="rgb(255,255,255)" stroke="rgb(0,0,0)" stroke-linecap="butt" stroke-width="0.5" stroke-miterlimit="10.0" fill-opacity="1.0" stroke-opacity="1.0" stroke-linejoin="miter"><path d="M 74.7934,74.7934 c 0.0000,-2.2822 -1.8501,-4.1322 -4.1322 -4.1322c -2.2822,-0.0000 -4.1322,1.8501 -4.1322 4.1322c -0.0000,2.2822 1.8501,4.1322 4.1322 4.1322c 2.2822,0.0000 4.1322,-1.8501 4.1322 -4.1322Z"/></g><g fill="rgb(0,0,0)" stroke="rgb(0,0,0)" stroke-linecap="butt" stroke-width="0.5" font-size="4.132231404958678px" stroke-miterlimit="10.0" fill-opacity="1.0" stroke-opacity="1.0" stroke-linejoin="miter"><text dominant-baseline="middle" stroke="none" transform="matrix(1.0000,0.0000,0.0000,1.0000,70.6612,74.7934)" text-anchor="middle">T</text></g><g fill="rgb(255,255,255)" stroke="rgb(0,0,0)" stroke-linecap="butt" stroke-width="0.5" stroke-miterlimit="10.0" fill-opacity="1.0" stroke-opacity="1.0" stroke-linejoin="miter"><path d="M 66.5289,74.7934 c 0.0000,-2.2822 -1.8501,-4.1322 -4.1322 -4.1322c -2.2822,-0.0000 -4.1322,1.8501 -4.1322 4.1322c -0.0000,2.2822 1.8501,4.1322 4.1322 4.1322c 2.2822,0.0000 4.1322,-1.8501 4.1322 -4.1322Z"/></g><g fill="rgb(0,0,0)" stroke="rgb(0,0,0)" stroke-linecap="butt" stroke-width="0.5" font-size="4.132231404958678px" stroke-miterlimit="10.0" fill-opacity="1.0" stroke-opacity="1.0" stroke-linejoin="miter"><text dominant-baseline="middle" stroke="none" transform="matrix(1.0000,0.0000,0.0000,1.0000,62.3967,74.7934)" text-anchor="middle">F</text></g><g fill="rgb(255,255,255)" stroke="rgb(0,0,0)" stroke-linecap="butt" stroke-width="0.5" stroke-miterlimit="10.0" fill-opacity="1.0" stroke-opacity="1.0" stroke-linejoin="miter"><path d="M 70.6612,62.3967 c 0.0000,-2.2822 -1.8501,-4.1322 -4.1322 -4.1322c -2.2822,-0.0000 -4.1322,1.8501 -4.1322 4.1322c -0.0000,2.2822 1.8501,4.1322 4.1322 4.1322c 2.2822,0.0000 4.1322,-1.8501 4.1322 -4.1322Z"/></g><g fill="rgb(0,0,0)" stroke="rgb(0,0,0)" stroke-linecap="butt" stroke-width="0.5" font-size="4.132231404958678px" stroke-miterlimit="10.0" fill-opacity="1.0" stroke-opacity="1.0" stroke-linejoin="miter"><text dominant-baseline="middle" stroke="none" transform="matrix(1.0000,0.0000,0.0000,1.0000,66.5289,62.3967)" text-anchor="middle">y&#39;</text></g><g fill="rgb(255,255,255)" stroke="rgb(0,0,0)" stroke-linecap="butt" stroke-width="0.5" stroke-miterlimit="10.0" fill-opacity="1.0" stroke-opacity="1.0" stroke-linejoin="miter"><path d="M 74.7934,50.0000 c 0.0000,-2.2822 -1.8501,-4.1322 -4.1322 -4.1322c -2.2822,-0.0000 -4.1322,1.8501 -4.1322 4.1322c -0.0000,2.2822 1.8501,4.1322 4.1322 4.1322c 2.2822,0.0000 4.1322,-1.8501 4.1322 -4.1322Z"/></g><g fill="rgb(0,0,0)" stroke="rgb(0,0,0)" stroke-linecap="butt" stroke-width="0.5" font-size="4.132231404958678px" stroke-miterlimit="10.0" fill-opacity="1.0" stroke-opacity="1.0" stroke-linejoin="miter"><text dominant-baseline="middle" stroke="none" transform="matrix(1.0000,0.0000,0.0000,1.0000,70.6612,50.0000)" text-anchor="middle">y</text></g><g fill="rgb(255,255,255)" stroke="rgb(0,0,0)" stroke-linecap="butt" stroke-width="0.5" stroke-miterlimit="10.0" fill-opacity="1.0" stroke-opacity="1.0" stroke-linejoin="miter"><path d="M 83.0579,37.6033 c 0.0000,-2.2822 -1.8501,-4.1322 -4.1322 -4.1322c -2.2822,-0.0000 -4.1322,1.8501 -4.1322 4.1322c -0.0000,2.2822 1.8501,4.1322 4.1322 4.1322c 2.2822,0.0000 4.1322,-1.8501 4.1322 -4.1322Z"/></g><g fill="rgb(0,0,0)" stroke="rgb(0,0,0)" stroke-linecap="butt" stroke-width="0.5" font-size="4.132231404958678px" stroke-miterlimit="10.0" fill-opacity="1.0" stroke-opacity="1.0" stroke-linejoin="miter"><text dominant-baseline="middle" stroke="none" transform="matrix(1.0000,0.0000,0.0000,1.0000,78.9256,37.6033)" text-anchor="middle">x&#39;</text></g><g fill="rgb(0,0,0)" stroke="rgb(0,0,0)" stroke-linecap="butt" stroke-width="0.5" stroke-miterlimit="10.0" fill-opacity="0.0" stroke-opacity="1.0" stroke-linejoin="miter"><path d="M 27.2727,37.6033 l 14.4628,12.3967 "/></g><g fill="rgb(0,0,0)" stroke="rgb(0,0,0)" stroke-linecap="butt" stroke-width="0.5" stroke-miterlimit="10.0" fill-opacity="0.0" stroke-opacity="1.0" stroke-linejoin="miter"><path d="M 27.2727,37.6033 l -14.4628,12.3967 "/></g><g fill="rgb(0,0,0)" stroke="rgb(0,0,0)" stroke-linecap="butt" stroke-width="0.5" stroke-miterlimit="10.0" fill-opacity="0.0" stroke-opacity="1.0" stroke-linejoin="miter"><path d="M 41.7355,50.0000 l 8.2645,12.3967 "/></g><g fill="rgb(0,0,0)" stroke="rgb(0,0,0)" stroke-linecap="butt" stroke-width="0.5" stroke-miterlimit="10.0" fill-opacity="0.0" stroke-opacity="1.0" stroke-linejoin="miter"><path d="M 41.7355,50.0000 l -8.2645,12.3967 "/></g><g fill="rgb(0,0,0)" stroke="rgb(0,0,0)" stroke-linecap="butt" stroke-width="0.5" stroke-miterlimit="10.0" fill-opacity="0.0" stroke-opacity="1.0" stroke-linejoin="miter"><path d="M 50.0000,62.3967 l 4.1322,12.3967 "/></g><g fill="rgb(0,0,0)" stroke="rgb(0,0,0)" stroke-linecap="butt" stroke-width="0.5" stroke-miterlimit="10.0" fill-opacity="0.0" stroke-opacity="1.0" stroke-linejoin="miter"><path d="M 50.0000,62.3967 l -4.1322,12.3967 "/></g><g fill="rgb(255,255,255)" stroke="rgb(0,0,0)" stroke-linecap="butt" stroke-width="0.5" stroke-miterlimit="10.0" fill-opacity="1.0" stroke-opacity="1.0" stroke-linejoin="miter"><path d="M 58.2645,74.7934 c 0.0000,-2.2822 -1.8501,-4.1322 -4.1322 -4.1322c -2.2822,-0.0000 -4.1322,1.8501 -4.1322 4.1322c -0.0000,2.2822 1.8501,4.1322 4.1322 4.1322c 2.2822,0.0000 4.1322,-1.8501 4.1322 -4.1322Z"/></g><g fill="rgb(0,0,0)" stroke="rgb(0,0,0)" stroke-linecap="butt" stroke-width="0.5" font-size="4.132231404958678px" stroke-miterlimit="10.0" fill-opacity="1.0" stroke-opacity="1.0" stroke-linejoin="miter"><text dominant-baseline="middle" stroke="none" transform="matrix(1.0000,0.0000,0.0000,1.0000,54.1322,74.7934)" text-anchor="middle">T</text></g><g fill="rgb(255,255,255)" stroke="rgb(0,0,0)" stroke-linecap="butt" stroke-width="0.5" stroke-miterlimit="10.0" fill-opacity="1.0" stroke-opacity="1.0" stroke-linejoin="miter"><path d="M 50.0000,74.7934 c 0.0000,-2.2822 -1.8501,-4.1322 -4.1322 -4.1322c -2.2822,-0.0000 -4.1322,1.8501 -4.1322 4.1322c -0.0000,2.2822 1.8501,4.1322 4.1322 4.1322c 2.2822,0.0000 4.1322,-1.8501 4.1322 -4.1322Z"/></g><g fill="rgb(0,0,0)" stroke="rgb(0,0,0)" stroke-linecap="butt" stroke-width="0.5" font-size="4.132231404958678px" stroke-miterlimit="10.0" fill-opacity="1.0" stroke-opacity="1.0" stroke-linejoin="miter"><text dominant-baseline="middle" stroke="none" transform="matrix(1.0000,0.0000,0.0000,1.0000,45.8678,74.7934)" text-anchor="middle">F</text></g><g fill="rgb(255,255,255)" stroke="rgb(0,0,0)" stroke-linecap="butt" stroke-width="0.5" stroke-miterlimit="10.0" fill-opacity="1.0" stroke-opacity="1.0" stroke-linejoin="miter"><path d="M 54.1322,62.3967 c 0.0000,-2.2822 -1.8501,-4.1322 -4.1322 -4.1322c -2.2822,-0.0000 -4.1322,1.8501 -4.1322 4.1322c -0.0000,2.2822 1.8501,4.1322 4.1322 4.1322c 2.2822,0.0000 4.1322,-1.8501 4.1322 -4.1322Z"/></g><g fill="rgb(0,0,0)" stroke="rgb(0,0,0)" stroke-linecap="butt" stroke-width="0.5" font-size="4.132231404958678px" stroke-miterlimit="10.0" fill-opacity="1.0" stroke-opacity="1.0" stroke-linejoin="miter"><text dominant-baseline="middle" stroke="none" transform="matrix(1.0000,0.0000,0.0000,1.0000,50.0000,62.3967)" text-anchor="middle">y&#39;</text></g><g fill="rgb(0,0,0)" stroke="rgb(0,0,0)" stroke-linecap="butt" stroke-width="0.5" stroke-miterlimit="10.0" fill-opacity="0.0" stroke-opacity="1.0" stroke-linejoin="miter"><path d="M 33.4711,62.3967 l 4.1322,12.3967 "/></g><g fill="rgb(0,0,0)" stroke="rgb(0,0,0)" stroke-linecap="butt" stroke-width="0.5" stroke-miterlimit="10.0" fill-opacity="0.0" stroke-opacity="1.0" stroke-linejoin="miter"><path d="M 33.4711,62.3967 l -4.1322,12.3967 "/></g><g fill="rgb(255,255,255)" stroke="rgb(0,0,0)" stroke-linecap="butt" stroke-width="0.5" stroke-miterlimit="10.0" fill-opacity="1.0" stroke-opacity="1.0" stroke-linejoin="miter"><path d="M 41.7355,74.7934 c 0.0000,-2.2822 -1.8501,-4.1322 -4.1322 -4.1322c -2.2822,-0.0000 -4.1322,1.8501 -4.1322 4.1322c -0.0000,2.2822 1.8501,4.1322 4.1322 4.1322c 2.2822,0.0000 4.1322,-1.8501 4.1322 -4.1322Z"/></g><g fill="rgb(0,0,0)" stroke="rgb(0,0,0)" stroke-linecap="butt" stroke-width="0.5" font-size="4.132231404958678px" stroke-miterlimit="10.0" fill-opacity="1.0" stroke-opacity="1.0" stroke-linejoin="miter"><text dominant-baseline="middle" stroke="none" transform="matrix(1.0000,0.0000,0.0000,1.0000,37.6033,74.7934)" text-anchor="middle">F</text></g><g fill="rgb(255,255,255)" stroke="rgb(0,0,0)" stroke-linecap="butt" stroke-width="0.5" stroke-miterlimit="10.0" fill-opacity="1.0" stroke-opacity="1.0" stroke-linejoin="miter"><path d="M 33.4711,74.7934 c 0.0000,-2.2822 -1.8501,-4.1322 -4.1322 -4.1322c -2.2822,-0.0000 -4.1322,1.8501 -4.1322 4.1322c -0.0000,2.2822 1.8501,4.1322 4.1322 4.1322c 2.2822,0.0000 4.1322,-1.8501 4.1322 -4.1322Z"/></g><g fill="rgb(0,0,0)" stroke="rgb(0,0,0)" stroke-linecap="butt" stroke-width="0.5" font-size="4.132231404958678px" stroke-miterlimit="10.0" fill-opacity="1.0" stroke-opacity="1.0" stroke-linejoin="miter"><text dominant-baseline="middle" stroke="none" transform="matrix(1.0000,0.0000,0.0000,1.0000,29.3388,74.7934)" text-anchor="middle">T</text></g><g fill="rgb(255,255,255)" stroke="rgb(0,0,0)" stroke-linecap="butt" stroke-width="0.5" stroke-miterlimit="10.0" fill-opacity="1.0" stroke-opacity="1.0" stroke-linejoin="miter"><path d="M 37.6033,62.3967 c 0.0000,-2.2822 -1.8501,-4.1322 -4.1322 -4.1322c -2.2822,-0.0000 -4.1322,1.8501 -4.1322 4.1322c -0.0000,2.2822 1.8501,4.1322 4.1322 4.1322c 2.2822,0.0000 4.1322,-1.8501 4.1322 -4.1322Z"/></g><g fill="rgb(0,0,0)" stroke="rgb(0,0,0)" stroke-linecap="butt" stroke-width="0.5" font-size="4.132231404958678px" stroke-miterlimit="10.0" fill-opacity="1.0" stroke-opacity="1.0" stroke-linejoin="miter"><text dominant-baseline="middle" stroke="none" transform="matrix(1.0000,0.0000,0.0000,1.0000,33.4711,62.3967)" text-anchor="middle">y&#39;</text></g><g fill="rgb(255,255,255)" stroke="rgb(0,0,0)" stroke-linecap="butt" stroke-width="0.5" stroke-miterlimit="10.0" fill-opacity="1.0" stroke-opacity="1.0" stroke-linejoin="miter"><path d="M 45.8678,50.0000 c 0.0000,-2.2822 -1.8501,-4.1322 -4.1322 -4.1322c -2.2822,-0.0000 -4.1322,1.8501 -4.1322 4.1322c -0.0000,2.2822 1.8501,4.1322 4.1322 4.1322c 2.2822,0.0000 4.1322,-1.8501 4.1322 -4.1322Z"/></g><g fill="rgb(0,0,0)" stroke="rgb(0,0,0)" stroke-linecap="butt" stroke-width="0.5" font-size="4.132231404958678px" stroke-miterlimit="10.0" fill-opacity="1.0" stroke-opacity="1.0" stroke-linejoin="miter"><text dominant-baseline="middle" stroke="none" transform="matrix(1.0000,0.0000,0.0000,1.0000,41.7355,50.0000)" text-anchor="middle">y</text></g><g fill="rgb(0,0,0)" stroke="rgb(0,0,0)" stroke-linecap="butt" stroke-width="0.5" stroke-miterlimit="10.0" fill-opacity="0.0" stroke-opacity="1.0" stroke-linejoin="miter"><path d="M 12.8099,50.0000 l 4.1322,12.3967 "/></g><g fill="rgb(0,0,0)" stroke="rgb(0,0,0)" stroke-linecap="butt" stroke-width="0.5" stroke-miterlimit="10.0" fill-opacity="0.0" stroke-opacity="1.0" stroke-linejoin="miter"><path d="M 12.8099,50.0000 l -4.1322,12.3967 "/></g><g fill="rgb(0,0,0)" stroke="rgb(0,0,0)" stroke-linecap="butt" stroke-width="0.5" stroke-miterlimit="10.0" fill-opacity="0.0" stroke-opacity="1.0" stroke-linejoin="miter"><path d="M 16.9421,62.3967 l 4.1322,12.3967 "/></g><g fill="rgb(0,0,0)" stroke="rgb(0,0,0)" stroke-linecap="butt" stroke-width="0.5" stroke-miterlimit="10.0" fill-opacity="0.0" stroke-opacity="1.0" stroke-linejoin="miter"><path d="M 16.9421,62.3967 l -4.1322,12.3967 "/></g><g fill="rgb(255,255,255)" stroke="rgb(0,0,0)" stroke-linecap="butt" stroke-width="0.5" stroke-miterlimit="10.0" fill-opacity="1.0" stroke-opacity="1.0" stroke-linejoin="miter"><path d="M 25.2066,74.7934 c 0.0000,-2.2822 -1.8501,-4.1322 -4.1322 -4.1322c -2.2822,-0.0000 -4.1322,1.8501 -4.1322 4.1322c -0.0000,2.2822 1.8501,4.1322 4.1322 4.1322c 2.2822,0.0000 4.1322,-1.8501 4.1322 -4.1322Z"/></g><g fill="rgb(0,0,0)" stroke="rgb(0,0,0)" stroke-linecap="butt" stroke-width="0.5" font-size="4.132231404958678px" stroke-miterlimit="10.0" fill-opacity="1.0" stroke-opacity="1.0" stroke-linejoin="miter"><text dominant-baseline="middle" stroke="none" transform="matrix(1.0000,0.0000,0.0000,1.0000,21.0744,74.7934)" text-anchor="middle">T</text></g><g fill="rgb(255,255,255)" stroke="rgb(0,0,0)" stroke-linecap="butt" stroke-width="0.5" stroke-miterlimit="10.0" fill-opacity="1.0" stroke-opacity="1.0" stroke-linejoin="miter"><path d="M 16.9421,74.7934 c 0.0000,-2.2822 -1.8501,-4.1322 -4.1322 -4.1322c -2.2822,-0.0000 -4.1322,1.8501 -4.1322 4.1322c -0.0000,2.2822 1.8501,4.1322 4.1322 4.1322c 2.2822,0.0000 4.1322,-1.8501 4.1322 -4.1322Z"/></g><g fill="rgb(0,0,0)" stroke="rgb(0,0,0)" stroke-linecap="butt" stroke-width="0.5" font-size="4.132231404958678px" stroke-miterlimit="10.0" fill-opacity="1.0" stroke-opacity="1.0" stroke-linejoin="miter"><text dominant-baseline="middle" stroke="none" transform="matrix(1.0000,0.0000,0.0000,1.0000,12.8099,74.7934)" text-anchor="middle">F</text></g><g fill="rgb(255,255,255)" stroke="rgb(0,0,0)" stroke-linecap="butt" stroke-width="0.5" stroke-miterlimit="10.0" fill-opacity="1.0" stroke-opacity="1.0" stroke-linejoin="miter"><path d="M 21.0744,62.3967 c 0.0000,-2.2822 -1.8501,-4.1322 -4.1322 -4.1322c -2.2822,-0.0000 -4.1322,1.8501 -4.1322 4.1322c -0.0000,2.2822 1.8501,4.1322 4.1322 4.1322c 2.2822,0.0000 4.1322,-1.8501 4.1322 -4.1322Z"/></g><g fill="rgb(0,0,0)" stroke="rgb(0,0,0)" stroke-linecap="butt" stroke-width="0.5" font-size="4.132231404958678px" stroke-miterlimit="10.0" fill-opacity="1.0" stroke-opacity="1.0" stroke-linejoin="miter"><text dominant-baseline="middle" stroke="none" transform="matrix(1.0000,0.0000,0.0000,1.0000,16.9421,62.3967)" text-anchor="middle">y&#39;</text></g><g fill="rgb(255,255,255)" stroke="rgb(0,0,0)" stroke-linecap="butt" stroke-width="0.5" stroke-miterlimit="10.0" fill-opacity="1.0" stroke-opacity="1.0" stroke-linejoin="miter"><path d="M 12.8099,62.3967 c 0.0000,-2.2822 -1.8501,-4.1322 -4.1322 -4.1322c -2.2822,-0.0000 -4.1322,1.8501 -4.1322 4.1322c -0.0000,2.2822 1.8501,4.1322 4.1322 4.1322c 2.2822,0.0000 4.1322,-1.8501 4.1322 -4.1322Z"/></g><g fill="rgb(0,0,0)" stroke="rgb(0,0,0)" stroke-linecap="butt" stroke-width="0.5" font-size="4.132231404958678px" stroke-miterlimit="10.0" fill-opacity="1.0" stroke-opacity="1.0" stroke-linejoin="miter"><text dominant-baseline="middle" stroke="none" transform="matrix(1.0000,0.0000,0.0000,1.0000,8.6777,62.3967)" text-anchor="middle">F</text></g><g fill="rgb(255,255,255)" stroke="rgb(0,0,0)" stroke-linecap="butt" stroke-width="0.5" stroke-miterlimit="10.0" fill-opacity="1.0" stroke-opacity="1.0" stroke-linejoin="miter"><path d="M 16.9421,50.0000 c 0.0000,-2.2822 -1.8501,-4.1322 -4.1322 -4.1322c -2.2822,-0.0000 -4.1322,1.8501 -4.1322 4.1322c -0.0000,2.2822 1.8501,4.1322 4.1322 4.1322c 2.2822,0.0000 4.1322,-1.8501 4.1322 -4.1322Z"/></g><g fill="rgb(0,0,0)" stroke="rgb(0,0,0)" stroke-linecap="butt" stroke-width="0.5" font-size="4.132231404958678px" stroke-miterlimit="10.0" fill-opacity="1.0" stroke-opacity="1.0" stroke-linejoin="miter"><text dominant-baseline="middle" stroke="none" transform="matrix(1.0000,0.0000,0.0000,1.0000,12.8099,50.0000)" text-anchor="middle">y</text></g><g fill="rgb(255,255,255)" stroke="rgb(0,0,0)" stroke-linecap="butt" stroke-width="0.5" stroke-miterlimit="10.0" fill-opacity="1.0" stroke-opacity="1.0" stroke-linejoin="miter"><path d="M 31.4050,37.6033 c 0.0000,-2.2822 -1.8501,-4.1322 -4.1322 -4.1322c -2.2822,-0.0000 -4.1322,1.8501 -4.1322 4.1322c -0.0000,2.2822 1.8501,4.1322 4.1322 4.1322c 2.2822,0.0000 4.1322,-1.8501 4.1322 -4.1322Z"/></g><g fill="rgb(0,0,0)" stroke="rgb(0,0,0)" stroke-linecap="butt" stroke-width="0.5" font-size="4.132231404958678px" stroke-miterlimit="10.0" fill-opacity="1.0" stroke-opacity="1.0" stroke-linejoin="miter"><text dominant-baseline="middle" stroke="none" transform="matrix(1.0000,0.0000,0.0000,1.0000,27.2727,37.6033)" text-anchor="middle">x&#39;</text></g><g fill="rgb(255,255,255)" stroke="rgb(0,0,0)" stroke-linecap="butt" stroke-width="0.5" stroke-miterlimit="10.0" fill-opacity="1.0" stroke-opacity="1.0" stroke-linejoin="miter"><path d="M 57.2314,25.2066 c 0.0000,-2.2822 -1.8501,-4.1322 -4.1322 -4.1322c -2.2822,-0.0000 -4.1322,1.8501 -4.1322 4.1322c -0.0000,2.2822 1.8501,4.1322 4.1322 4.1322c 2.2822,0.0000 4.1322,-1.8501 4.1322 -4.1322Z"/></g><g fill="rgb(0,0,0)" stroke="rgb(0,0,0)" stroke-linecap="butt" stroke-width="0.5" font-size="4.132231404958678px" stroke-miterlimit="10.0" fill-opacity="1.0" stroke-opacity="1.0" stroke-linejoin="miter"><text dominant-baseline="middle" stroke="none" transform="matrix(1.0000,0.0000,0.0000,1.0000,53.0992,25.2066)" text-anchor="middle">x</text></g></svg>